<?xml version="1.0" standalone="no"?>
<!DOCTYPE svg PUBLIC "-//W3C//DTD SVG 20010904//EN"
 "http://www.w3.org/TR/2001/REC-SVG-20010904/DTD/svg10.dtd">
<svg version="1.0" xmlns="http://www.w3.org/2000/svg"
 width="449.000000pt" height="122.000000pt" viewBox="0 0 449.000000 122.000000"
 preserveAspectRatio="xMidYMid meet">

<g transform="translate(0.000000,122.000000) scale(0.100000,-0.100000)"
fill="#000000" stroke="none">
<path d="M4085 983 c-71 -18 -115 -91 -115 -190 1 -95 23 -137 129 -243 94
-94 119 -140 105 -195 -9 -35 -45 -58 -78 -49 -33 8 -46 31 -46 83 l0 41 -61
0 -62 0 7 -62 c4 -34 14 -74 22 -89 34 -66 116 -98 203 -80 118 24 167 131
125 272 -14 46 -31 69 -109 149 -52 52 -98 108 -104 123 -26 68 -1 137 49 137
32 0 60 -36 60 -75 l0 -35 60 0 c59 0 60 1 60 28 0 76 -46 153 -107 178 -32
14 -98 17 -138 7z"/>
<path d="M1096 618 c-32 -200 -60 -375 -63 -390 -5 -28 -5 -28 50 -28 62 0 61
-2 72 88 l7 52 77 0 78 0 9 -67 9 -68 63 -3 63 -3 -6 33 c-3 18 -32 193 -63
388 l-57 355 -90 3 -91 3 -58 -363z m174 22 c11 -85 23 -163 26 -172 5 -16 -2
-18 -57 -18 l-61 0 5 28 c2 15 15 101 28 190 14 100 26 157 31 145 4 -10 16
-88 28 -173z"/>
<path d="M1520 590 l0 -390 160 0 160 0 0 55 0 55 -100 0 -100 0 0 335 0 335
-60 0 -60 0 0 -390z"/>
<path d="M1900 590 l0 -390 160 0 160 0 0 55 0 55 -100 0 -100 0 0 335 0 335
-60 0 -60 0 0 -390z"/>
<path d="M2450 590 l0 -390 60 0 60 0 0 160 0 160 29 0 c41 0 77 -15 86 -37 5
-10 11 -76 14 -148 l6 -130 60 -3 60 -3 -3 128 c-4 152 -13 193 -51 228 l-28
27 28 27 c66 66 67 254 1 324 -35 37 -78 47 -209 47 l-113 0 0 -390z m223 265
c19 -19 30 -94 21 -150 -8 -54 -32 -75 -86 -75 l-38 0 0 120 0 120 44 0 c26 0
51 -6 59 -15z"/>
<path d="M2900 590 l0 -390 60 0 60 0 0 390 0 390 -60 0 -60 0 0 -390z"/>
<path d="M3110 590 l0 -390 123 0 c107 0 128 3 167 22 83 42 85 52 85 368 0
316 -2 326 -85 368 -39 19 -60 22 -167 22 l-123 0 0 -390z m236 266 c18 -14
19 -28 19 -266 0 -286 2 -280 -82 -280 l-43 0 0 280 0 280 43 0 c24 0 52 -6
63 -14z"/>
<path d="M3570 590 l0 -390 170 0 170 0 0 55 0 55 -110 0 -110 0 0 115 0 115
85 0 85 0 0 55 0 55 -85 0 -85 0 0 110 0 110 110 0 110 0 0 55 0 55 -170 0
-170 0 0 -390z"/>
<path d="M368 886 c-133 -55 -202 -157 -202 -296 1 -86 15 -133 39 -124 11 5
13 12 8 28 -4 11 -8 57 -8 101 1 92 19 137 82 196 72 69 158 94 255 74 63 -12
142 -61 134 -82 -4 -9 4 -13 24 -13 27 0 30 3 30 31 0 17 -4 28 -10 24 -5 -3
-28 8 -51 25 -86 62 -203 76 -301 36z"/>
<path d="M395 791 c-149 -69 -180 -257 -61 -373 40 -39 92 -58 160 -58 200 0
296 247 150 387 -66 64 -168 82 -249 44z m198 -50 c20 -12 46 -38 58 -58 22
-35 22 -36 3 -50 -11 -8 -30 -12 -44 -9 -101 22 -123 24 -174 16 -31 -5 -61
-12 -67 -15 -5 -4 -21 -4 -35 -1 -37 10 -30 41 20 90 67 68 157 78 239 27z
m-72 -140 c20 -16 22 -23 14 -47 -18 -51 -95 -42 -95 12 0 25 24 54 45 54 7 0
23 -9 36 -19z m-176 -61 c17 -33 20 -80 5 -80 -15 0 -50 61 -50 88 0 32 27 28
45 -8z m330 20 c7 -11 -21 -82 -37 -91 -33 -21 -38 35 -7 75 22 27 34 32 44
16z m-121 -99 c49 -54 -31 -86 -136 -55 -25 7 -22 40 4 58 33 23 110 21 132
-3z"/>
<path d="M462 588 c-26 -26 1 -65 38 -53 16 5 20 14 18 33 -3 30 -35 41 -56
20z"/>
<path d="M761 711 c-11 -7 -11 -15 -2 -41 29 -85 3 -193 -64 -268 -99 -110
-243 -130 -368 -50 -38 24 -45 33 -36 44 9 12 5 14 -25 14 -35 0 -36 -1 -36
-37 0 -27 3 -34 11 -26 9 9 24 3 59 -21 63 -43 124 -59 207 -54 111 6 214 72
263 168 28 55 41 142 30 201 -12 64 -21 80 -39 70z"/>
</g>
</svg>
